<svg aria-hidden="true" style="position: absolute; width: 0; height: 0; overflow: hidden;" version="1.1" xmlns="http://www.w3.org/2000/svg" xmlns:xlink="http://www.w3.org/1999/xlink">
<defs>
<symbol id="icon-github" viewBox="0 0 24 28">
<title>github</title>
<path d="M12 2c6.625 0 12 5.375 12 12 0 5.297-3.437 9.797-8.203 11.391-0.609 0.109-0.828-0.266-0.828-0.578 0-0.391 0.016-1.687 0.016-3.297 0-1.125-0.375-1.844-0.812-2.219 2.672-0.297 5.484-1.313 5.484-5.922 0-1.313-0.469-2.375-1.234-3.219 0.125-0.313 0.531-1.531-0.125-3.187-1-0.313-3.297 1.234-3.297 1.234-0.953-0.266-1.984-0.406-3-0.406s-2.047 0.141-3 0.406c0 0-2.297-1.547-3.297-1.234-0.656 1.656-0.25 2.875-0.125 3.187-0.766 0.844-1.234 1.906-1.234 3.219 0 4.594 2.797 5.625 5.469 5.922-0.344 0.313-0.656 0.844-0.766 1.609-0.688 0.313-2.438 0.844-3.484-1-0.656-1.141-1.844-1.234-1.844-1.234-1.172-0.016-0.078 0.734-0.078 0.734 0.781 0.359 1.328 1.75 1.328 1.75 0.703 2.141 4.047 1.422 4.047 1.422 0 1 0.016 1.937 0.016 2.234 0 0.313-0.219 0.688-0.828 0.578-4.766-1.594-8.203-6.094-8.203-11.391 0-6.625 5.375-12 12-12zM4.547 19.234c0.031-0.063-0.016-0.141-0.109-0.187-0.094-0.031-0.172-0.016-0.203 0.031-0.031 0.063 0.016 0.141 0.109 0.187 0.078 0.047 0.172 0.031 0.203-0.031zM5.031 19.766c0.063-0.047 0.047-0.156-0.031-0.25-0.078-0.078-0.187-0.109-0.25-0.047-0.063 0.047-0.047 0.156 0.031 0.25 0.078 0.078 0.187 0.109 0.25 0.047zM5.5 20.469c0.078-0.063 0.078-0.187 0-0.297-0.063-0.109-0.187-0.156-0.266-0.094-0.078 0.047-0.078 0.172 0 0.281s0.203 0.156 0.266 0.109zM6.156 21.125c0.063-0.063 0.031-0.203-0.063-0.297-0.109-0.109-0.25-0.125-0.313-0.047-0.078 0.063-0.047 0.203 0.063 0.297 0.109 0.109 0.25 0.125 0.313 0.047zM7.047 21.516c0.031-0.094-0.063-0.203-0.203-0.25-0.125-0.031-0.266 0.016-0.297 0.109s0.063 0.203 0.203 0.234c0.125 0.047 0.266 0 0.297-0.094zM8.031 21.594c0-0.109-0.125-0.187-0.266-0.172-0.141 0-0.25 0.078-0.25 0.172 0 0.109 0.109 0.187 0.266 0.172 0.141 0 0.25-0.078 0.25-0.172zM8.937 21.438c-0.016-0.094-0.141-0.156-0.281-0.141-0.141 0.031-0.234 0.125-0.219 0.234 0.016 0.094 0.141 0.156 0.281 0.125s0.234-0.125 0.219-0.219z"></path>
</symbol>
<symbol id="icon-linkedin" viewBox="0 0 24 28">
<title>linkedin</title>
<path d="M5.453 9.766v15.484h-5.156v-15.484h5.156zM5.781 4.984c0.016 1.484-1.109 2.672-2.906 2.672v0h-0.031c-1.734 0-2.844-1.188-2.844-2.672 0-1.516 1.156-2.672 2.906-2.672 1.766 0 2.859 1.156 2.875 2.672zM24 16.375v8.875h-5.141v-8.281c0-2.078-0.75-3.5-2.609-3.5-1.422 0-2.266 0.953-2.641 1.875-0.125 0.344-0.172 0.797-0.172 1.266v8.641h-5.141c0.063-14.031 0-15.484 0-15.484h5.141v2.25h-0.031c0.672-1.062 1.891-2.609 4.672-2.609 3.391 0 5.922 2.219 5.922 6.969z"></path>
</symbol>
<symbol id="icon-codepen" viewBox="0 0 28 28">
<title>codepen</title>
<path d="M3.375 18.266l9.422 6.281v-5.609l-5.219-3.484zM2.406 16.016l3.016-2.016-3.016-2.016v4.031zM15.203 24.547l9.422-6.281-4.203-2.812-5.219 3.484v5.609zM14 16.844l4.25-2.844-4.25-2.844-4.25 2.844zM7.578 12.547l5.219-3.484v-5.609l-9.422 6.281zM22.578 14l3.016 2.016v-4.031zM20.422 12.547l4.203-2.812-9.422-6.281v5.609zM28 9.734v8.531c0 0.391-0.203 0.781-0.531 1l-12.797 8.531c-0.203 0.125-0.438 0.203-0.672 0.203s-0.469-0.078-0.672-0.203l-12.797-8.531c-0.328-0.219-0.531-0.609-0.531-1v-8.531c0-0.391 0.203-0.781 0.531-1l12.797-8.531c0.203-0.125 0.438-0.203 0.672-0.203s0.469 0.078 0.672 0.203l12.797 8.531c0.328 0.219 0.531 0.609 0.531 1z"></path>
</symbol>
<symbol id="icon-freecodecamp" viewBox="0 0 36 28">
<title>freecodecamp</title>
<path d="M7.078 25.578c0 0.438-0.391 0.844-0.828 0.844-0.063 0-0.141-0.031-0.203-0.047v0c-0.875-0.203-2-1.516-2.531-2.188-2.438-3.078-3.516-6.672-3.516-10.563 0-3.625 1.094-6.734 3.328-9.594 0.516-0.672 2.047-2.438 2.953-2.438 0.391 0 0.797 0.313 0.797 0.719 0 0.469-0.688 1.109-0.984 1.406-0.859 0.891-1.656 1.797-2.297 2.875-1.328 2.219-1.859 4.438-1.859 7.016 0 2.766 0.516 5.266 1.922 7.672 0.594 1.016 1.297 1.859 2.125 2.703 0.328 0.359 1.094 1.062 1.094 1.594zM28.063 23.484c0 0.578-0.391 1.062-1 1.062h-16.891c-0.547 0-1-0.453-1-1 0-0.578 0.391-1.062 1-1.062h16.891c0.547 0 1 0.453 1 1zM24.703 13.937c0 1.312-0.297 2.531-1.047 3.641-0.516 0.766-1.563 1.75-2.391 2.172-0.125 0.078-0.281 0.156-0.422 0.156-0.125 0-0.359-0.141-0.359-0.281 0-0.453 1.906-1.531 1.906-3.625 0-0.688-0.172-1.453-0.547-2.031-0.109-0.156-0.5-0.656-0.719-0.656-0.047 0-0.047 0.031-0.047 0.078 0 0.375 0.234 0.734 0.234 1.125 0 0.5-0.609 0.75-1.031 0.75-0.734 0-1.031-0.516-1.031-1.188 0-0.453 0.047-0.922 0.047-1.375 0-0.328-0.016-0.422-0.156-0.719-0.219-0.422-0.938-1.281-1.453-1.281-0.141 0-0.187 0-0.187 0.141 0 0.219 0.5 0.453 0.5 1.25 0 2.078-2.859 2.453-2.859 4.531 0 0.938 0.125 1.719 0.656 2.5 0.328 0.484 0.688 0.766 1.234 0.984 0.141 0.047 0.281 0.063 0.281 0.234s-0.141 0.25-0.281 0.25c-0.078 0-0.438-0.141-0.516-0.172v0c-2.406-0.875-4.234-2.969-4.234-5.594 0-3.109 3.734-5.828 3.734-8.813 0-0.578-0.094-0.984-0.391-1.469-0.172-0.281-0.594-0.828-0.875-1-0.125-0.063-0.297-0.172-0.297-0.328 0-0.266 0.453-0.313 0.641-0.313 0.562 0 1.203 0.203 1.719 0.453 2.172 1.031 2.625 2.609 3 4.797 0.094 0.516 0.281 2.156 1.031 2.156 0.484 0 0.797-0.328 0.797-0.797 0-0.703-0.625-1.469-0.625-1.859 0-0.109 0.063-0.156 0.156-0.156 0.391 0 1.203 0.828 1.453 1.094 1.516 1.609 2.078 3.172 2.078 5.344zM36 14.391c0 2.75-0.734 5.5-2.156 7.859-0.656 1.094-2.812 4.156-4.234 4.156-0.328 0-0.719-0.406-0.719-0.734 0-0.531 1.828-2.234 2.281-2.812 1.937-2.438 2.859-5.187 2.859-8.297 0-2.562-0.313-4.641-1.453-6.969-0.703-1.437-1.437-2.406-2.547-3.563-0.359-0.375-1.141-1.078-1.141-1.641 0-0.391 0.406-0.812 0.797-0.812 1.031 0 2.516 1.906 3.063 2.641 2.094 2.812 2.984 5.703 3.219 9.172 0.016 0.328 0.031 0.672 0.031 1z"></path>
</symbol>
</defs>
</svg>
